<svg xmlns="http://www.w3.org/2000/svg" viewBox="0 0 192 192">
  <!-- Flag background with shadow -->
  <rect x="16" y="32" width="160" height="107" rx="4" fill="#ddd"/>
  <!-- Flagpole -->
  <rect x="16" y="28" width="6" height="140" rx="2" fill="#8B4513"/>
  <circle cx="19" cy="28" r="5" fill="#DAA520"/>
  <!-- Saffron stripe -->
  <rect x="22" y="32" width="154" height="36" fill="#FF9933"/>
  <!-- White stripe -->
  <rect x="22" y="68" width="154" height="35" fill="#FFFFFF"/>
  <!-- Green stripe -->
  <rect x="22" y="103" width="154" height="36" fill="#138808"/>
  <!-- Ashoka Chakra -->
  <circle cx="99" cy="85.5" r="14" fill="none" stroke="#000080" stroke-width="2"/>
  <circle cx="99" cy="85.5" r="2.5" fill="#000080"/>
  <!-- 24 spokes -->
  <g stroke="#000080" stroke-width="0.8">
    <line x1="99" y1="72.5" x2="99" y2="98.5"/>
    <line x1="86" y1="85.5" x2="112" y2="85.5"/>
    <line x1="90.1" y1="76.6" x2="107.9" y2="94.4"/>
    <line x1="107.9" y1="76.6" x2="90.1" y2="94.4"/>
    <line x1="93" y1="73.2" x2="105" y2="97.8"/>
    <line x1="86.7" y1="79.5" x2="111.3" y2="91.5"/>
    <line x1="86.7" y1="91.5" x2="111.3" y2="79.5"/>
    <line x1="93" y1="97.8" x2="105" y2="73.2"/>
    <line x1="87.5" y1="82.3" x2="110.5" y2="88.7"/>
    <line x1="95.8" y1="72.8" x2="102.2" y2="98.2"/>
    <line x1="95.8" y1="98.2" x2="102.2" y2="72.8"/>
    <line x1="87.5" y1="88.7" x2="110.5" y2="82.3"/>
  </g>
</svg>
